<svg xmlns="http://www.w3.org/2000/svg" width="125" height="125" viewBox="0 0 125 125">
  <defs>
    <style>
      .cls-1 {
        fill: #cecece;
        fill-rule: evenodd;
      }
    </style>
  </defs>
  <path id="形状_1" data-name="形状 1" class="cls-1" d="M59.326,65.674A84.574,84.574,0,0,0,48.1,56.152a32.547,32.547,0,0,0-8.3-3.662s2.2-7.555,7.568-12.451c4.1-3.732,12.451-5.371,12.451-5.371A25.766,25.766,0,0,1,73.242,37.6c5.076,2.745,9.766,10.254,9.766,10.254a33.115,33.115,0,0,1,4.394-.732c2.157-.221,5.371-0.244,5.371-0.244A34.474,34.474,0,0,0,82.52,31.982c-4.272-3.645-12.939-6.592-12.939-6.592a46.059,46.059,0,0,0-12.451-.244A36.606,36.606,0,0,0,45.9,29.053,36.391,36.391,0,0,0,35.156,39.307c-3.242,4.862-4.883,12.939-4.883,12.939S21.415,54.024,15.625,60.3c-4.005,4.343-5.371,14.648-5.371,14.648S10.267,84.971,15.869,91.8c4.981,6.069,15.381,8.3,15.381,8.3l62.988-.245a30.413,30.413,0,0,0,12.7-5.859c2.785-2.315,6.591-9.521,6.591-9.521a25.826,25.826,0,0,0,.245-14.893c-1.077-3.8-5.86-10.5-5.86-10.5A34.272,34.272,0,0,0,93.75,52c-5.057-1.029-12.939,1.465-12.939,1.465L75.44,56.885,40.527,90.576s-0.345.038-.945,0.068c-2.345.116-8.592,0.11-13.459-2.753-3.48-2.047-5.859-7.568-5.859-7.568s-1.323-6.793,1.709-12.207c1.639-2.926,6.836-5.615,6.836-5.615s6.713-1.861,11.231.244C46.048,65.544,52,72.022,52,72.022ZM53.955,90.82S73.881,69.792,85.449,62.256c3.378-2.2,11.475.488,11.475,0.488s6.1,4.068,7.812,9.766c1.587,5.289-2.685,12.939-2.685,12.939s-2.758,3.516-8.789,4.395c-7.247,1.055-18.555.732-18.555,0.732Z"/>
</svg>
